<svg width="1000" height="1000" viewBox="0 0 1000 1000" fill="none" xmlns="http://www.w3.org/2000/svg">
<g clip-path="url(#clip0_16_10274)">
<path d="M800 0H200C89.5431 0 0 89.5431 0 200V800C0 910.457 89.5431 1000 200 1000H800C910.457 1000 1000 910.457 1000 800V200C1000 89.5431 910.457 0 800 0Z" fill="white"/>
<g clip-path="url(#clip1_16_10274)">
<path d="M895.398 757.327C894.702 756.69 893.852 756.246 892.933 756.038C892.013 755.83 891.055 755.864 890.153 756.139C848.683 694.852 795.931 636.733 744.862 580.594L736.449 571.386C736.449 570.297 735.954 569.307 735.262 568.416C734.424 567.361 733.225 566.655 731.897 566.436L730.214 564.653L729.026 563.762C727.542 560.594 723.781 558.218 719.624 560.297C703.987 568.317 689.932 579.802 676.076 590.396C657.569 604.555 639.457 619.307 622.434 635.149C615.506 641.584 608.676 648.317 602.936 655.842C600.165 659.505 602.243 662.97 605.608 664.455C593.534 676.337 581.36 688.713 569.187 701.485C568.098 702.673 567.504 704.257 567.603 705.842C567.702 707.426 568.494 708.911 569.781 709.901L591.158 726.238C591.158 726.238 591.257 726.535 591.455 726.634C622.038 756.832 675.68 798.713 732.49 843.069C740.903 849.703 749.415 856.337 757.926 862.97C761.786 867.624 765.448 872.277 769.011 876.832C770.891 879.307 774.454 879.802 776.929 877.921C778.215 878.911 779.502 880 780.789 880.99C781.374 881.445 782.042 881.781 782.757 881.977C783.471 882.174 784.217 882.228 784.953 882.136C785.688 882.044 786.398 881.808 787.042 881.442C787.686 881.075 788.252 880.585 788.706 880C789.399 879.109 789.696 878.02 789.795 876.931C790.191 876.931 790.488 877.228 790.785 877.228C792.269 877.228 793.853 876.634 794.942 875.446L895.695 765.347C896.197 764.804 896.585 764.167 896.837 763.473C897.09 762.779 897.201 762.041 897.164 761.303C897.127 760.565 896.943 759.842 896.623 759.176C896.303 758.51 895.853 757.915 895.299 757.426L895.398 757.327ZM606.103 719.208C606.796 720.099 607.489 720.891 608.182 721.683C619.662 731.386 631.935 741.881 644.405 752.574L593.732 713.861C593.732 713.861 590.565 711.683 588.585 710.297C587.496 709.505 586.507 708.713 585.517 707.921L581.756 704.753C581.756 704.753 582.449 704.059 582.746 703.663L586.21 700.198C603.233 682.97 632.43 654.257 647.474 640.198C631.539 656.238 599.274 703.267 606.202 719.208H606.103ZM779.601 855.941L737.835 824.06C721.504 807.129 703.888 790.396 685.974 774.258C708.539 791.683 727.839 806.436 730.709 809.01C752.582 828.515 751.592 824.951 766.636 837.822L784.747 850.99C782.966 852.574 781.185 854.258 779.502 855.842L779.601 855.941ZM790.092 863.96L789.3 863.366C790.884 862.079 792.566 860.891 794.15 859.604L790.191 863.96H790.092ZM127.673 217.426C129.058 224.554 130.345 231.584 131.632 238.317C138.461 274.951 144.795 307.921 156.869 332.97L161.62 351.98C163.501 359.208 166.173 368.218 168.647 370.099C196.854 395.05 240.105 432.277 286.325 467.327C288.403 468.911 291.273 468.812 293.253 467.228C293.352 467.426 293.55 467.525 293.649 467.624C294.737 468.614 296.024 469.109 297.41 469.109C298.993 469.109 300.478 468.515 301.566 467.228C360.752 401.386 404.794 347.228 436.168 301.881C438.148 299.406 439.137 296.535 439.038 293.564C441.018 291.188 443.096 288.812 444.977 286.832C445.549 286.244 445.984 285.535 446.248 284.758C446.513 283.981 446.601 283.154 446.506 282.339C446.411 281.523 446.136 280.739 445.7 280.043C445.265 279.348 444.679 278.758 443.987 278.317C443.866 276.967 443.27 275.704 442.305 274.753C428.547 261.485 418.353 251.881 408.06 242.277C389.849 225.248 371.045 207.624 331.159 167.921C330.961 167.723 330.664 167.525 330.466 167.327C329.861 166.698 329.114 166.223 328.289 165.941C317.303 162.079 294.737 158.218 266.332 153.267C224.566 146.139 167.36 136.238 115.895 120.891H115.499V120.792C115.499 120.792 115.301 120.792 115.202 120.99H115.103L115.499 120.792C115.499 120.792 112.431 120.891 111.837 121.188C111.045 121.584 110.452 122.079 109.957 122.673C109.462 123.267 109.066 123.861 105.305 124.654C101.544 125.446 106.097 124.654 106.394 124.654H105.305V124.951C105.998 128.317 105.8 130.693 106.889 134.554C106.691 135.545 108.967 144.653 109.264 145.545L127.376 217.426H127.673ZM433.991 282.178C433.991 282.178 433.694 282.574 433.595 282.673L427.261 275.644C429.438 277.723 431.616 279.802 433.991 282.178ZM363.82 375.149C363.82 375.149 363.127 375.941 362.83 376.337L362.632 376.139C363.028 375.842 363.424 375.446 363.919 375.149H363.82ZM323.736 176.139C327.2 179.604 340.957 192.475 344.124 195.644C329.773 189.109 294.045 172.475 277.417 167.129C293.748 170 316.313 173.663 323.736 176.139ZM133.908 148.713C142.222 162.97 148.754 212.97 155.286 261.584C151.624 245.941 148.457 230.693 145.488 216.04C140.341 190.693 135.59 168.02 128.959 147.921C130.345 148.02 132.027 148.218 133.809 148.416C133.809 148.515 133.809 148.614 134.007 148.713H133.908ZM131.038 136.733C128.761 136.535 126.683 136.337 124.901 136.238C124.704 135.842 124.605 135.446 124.506 135.05L131.038 136.832V136.733ZM886.392 129.505C886.788 127.228 875.505 117.228 879.068 117.03C887.48 116.634 887.579 103.663 879.068 104.059C867.884 104.653 856.601 107.228 845.714 109.307C826.118 112.97 806.62 117.03 787.123 121.287C743.674 130.594 700.324 140.396 657.47 152.079C644.009 155.743 629.164 159.01 616.792 165.545C612.635 167.723 612.833 172.178 615.11 174.951C614.219 175.446 613.328 175.743 612.338 175.842C608.676 176.535 605.014 177.129 601.353 177.723C600.438 177.869 599.574 178.239 598.838 178.801C598.102 179.363 597.517 180.099 597.134 180.942C596.752 181.786 596.585 182.711 596.647 183.635C596.71 184.559 597 185.453 597.493 186.238C574.531 216.931 548.403 250 520.097 284.753C492.285 316.535 463.386 350.396 433.793 385.149C340.66 494.654 235.057 618.812 118.072 728.119C115.796 730.198 115.697 733.762 117.776 736.04C118.27 736.634 118.963 737.03 119.656 737.327C118.072 738.812 116.489 740.297 114.905 741.683C113.916 742.574 113.52 743.663 113.322 744.852C112.53 745.644 111.738 746.535 111.045 747.327C108.967 749.604 109.066 753.168 111.342 755.248C113.619 757.327 117.182 757.228 119.26 754.951C119.656 754.555 120.052 754.06 120.448 753.663C121.225 752.842 122.161 752.189 123.199 751.742C124.237 751.295 125.355 751.064 126.485 751.064C127.615 751.064 128.733 751.295 129.771 751.742C130.809 752.189 131.745 752.842 132.522 753.663C139.351 760.99 145.785 767.921 151.822 774.357L138.164 762.97C137.02 762.017 135.545 761.555 134.062 761.685C132.579 761.815 131.207 762.526 130.246 763.663C128.267 766.04 128.563 769.604 130.939 771.584L277.615 894.654C278.704 895.545 279.991 895.941 281.277 895.941C282.762 895.941 284.147 895.347 285.236 894.258L288.799 890.693C289.835 891.158 290.988 891.293 292.104 891.08C293.219 890.868 294.242 890.318 295.034 889.505C493.869 689.703 654.006 538.713 837.401 403.762C839.083 402.574 839.875 400.594 839.677 398.713C840.756 398.595 841.779 398.168 842.621 397.483C843.464 396.798 844.091 395.884 844.428 394.852C878.276 291.287 884.808 199.604 886.788 154.554C886.788 154.257 886.887 154.059 886.986 153.861C887.184 153.366 887.283 152.871 887.381 152.475C887.678 151.386 887.876 150.594 887.876 150.594C890.45 142.871 889.559 135.446 886.392 129.307V129.505ZM530.885 291.584C539.792 281.386 548.6 271.386 557.31 261.683C500.302 336.733 405.883 452.376 272.172 589.802C363.226 489.01 454.973 384.554 530.885 291.584ZM208.731 814.456L208.434 814.159C209.523 814.357 210.314 814.555 210.413 814.555C209.857 814.452 209.287 814.452 208.731 814.555V814.456ZM277.021 878.02L276.527 877.624L276.823 877.327C277.021 877.327 277.12 877.525 277.219 877.525C277.219 877.723 277.021 877.822 276.922 878.02H277.021ZM359.762 806.634L373.42 792.376C373.519 792.475 373.618 792.673 373.717 792.871C369.065 797.426 364.414 802.079 359.663 806.634H359.762ZM381.932 784.753C384.505 781.782 387.474 778.317 390.542 774.654C390.641 774.555 390.74 774.357 390.938 774.258C423.5 740.693 457.051 706.733 491.692 672.772C491.889 672.574 492.186 672.376 492.384 672.178C500.896 665.644 510.397 658.416 519.305 651.584C474.569 694.357 429.141 738.515 381.932 784.852V784.753ZM596.206 231.485C577.797 255.446 557.607 286.535 540.485 311.386C486.446 389.703 312.453 581.485 308.593 585.148C281.772 611.089 200.912 688.713 149.348 737.327C147.962 738.614 146.873 739.703 145.982 740.792C145.261 740.041 144.696 739.155 144.32 738.184C143.944 737.213 143.765 736.177 143.793 735.136C143.82 734.095 144.054 733.07 144.481 732.12C144.908 731.171 145.519 730.315 146.279 729.604C391.928 497.921 540.98 304.951 601.551 220.891C600.264 224.158 599.175 227.723 596.107 231.683L596.206 231.485ZM759.609 301.782L759.51 301.98C759.51 301.782 759.312 301.287 759.609 301.782ZM692.308 344.555C669.94 331.584 659.449 312.178 665.486 292.574L667.367 286.04C668.159 284.158 669.049 282.277 670.138 280.396C675.977 270.693 684.885 262.079 695.079 257.03C695.574 256.832 696.069 256.733 696.564 256.634C696.041 255.278 695.904 253.805 696.168 252.376C696.663 249.307 698.642 246.634 702.7 246.634C709.331 246.634 729.917 252.772 737.736 259.505C740.111 261.386 742.388 263.465 744.466 265.743C747.435 269.208 751.79 274.852 753.967 278.911C755.254 279.505 756.244 285.05 757.728 287.921C759.114 292.475 759.708 297.129 759.51 301.782C759.51 301.98 759.51 301.98 759.609 302.079C759.312 302.772 759.609 305.743 759.213 306.04C758.223 313.168 755.65 320.198 751.79 326.337C751.394 326.832 751.097 327.426 750.701 327.921C750.701 328.02 750.503 328.119 750.404 328.317C747.435 332.574 743.971 336.535 739.715 339.505C727.245 348.317 712.696 350.99 698.147 347.327C696.227 346.595 694.344 345.769 692.506 344.852L692.308 344.555ZM853.335 328.416C848.485 348.713 842.547 369.901 835.52 391.584C835.223 392.376 835.223 393.168 835.223 393.861C834.234 393.96 833.343 394.356 832.551 394.951C788.607 427.228 746.149 460.495 704.085 495.049C740.408 462.178 777.226 429.505 815.231 396.535C826.241 386.961 833.617 373.883 836.114 359.505L841.656 326.139L841.953 325.149C844.428 318.119 855.216 321.188 853.533 328.416H853.335Z" fill="#6965DB"/>
<circle cx="706.5" cy="300.5" r="57.5" fill="#6965DB"/>
<path d="M410.9 697.267C410.051 698.115 406.044 701.368 398.879 707.025C391.902 712.682 387.942 716.17 386.999 717.49C378.231 727.955 371.019 735.828 365.362 741.107C358.008 747.518 351.974 751.667 347.26 753.552C343.017 755.155 338.633 755.485 334.108 754.542C329.677 753.505 326.094 751.242 323.36 747.754C318.08 743.04 314.45 737.619 312.47 731.491C306.154 714.991 300.497 702.169 295.5 693.024C292.671 689.441 290.079 684.397 287.722 677.892C285.27 671.292 282.819 666.484 280.368 663.467C279.613 662.713 279.095 662.194 278.812 661.911C278.529 661.628 277.869 661.251 276.832 660.78C275.795 660.309 275.135 660.026 274.852 659.931C272.307 654.557 271.128 651.022 271.317 649.325C273.297 644.705 274.805 641.877 275.842 640.84C277.634 639.048 279.991 638.577 282.913 639.425C288.664 647.816 292.86 654.369 295.5 659.083C299.837 666.248 305.682 677.75 313.036 693.59C320.39 709.24 324.397 717.678 325.057 718.904C325.811 720.79 326.848 722.487 328.168 723.995C329.394 725.409 330.902 726.918 332.694 728.521C334.485 730.124 335.805 731.443 336.653 732.481C338.162 732.858 341.462 731.915 346.553 729.652C350.513 727.767 354.19 725.127 357.584 721.733C360.695 718.621 362.958 716.17 364.372 714.379C372.292 705.139 378.42 697.597 382.757 691.751C383.888 690.808 384.548 690.148 384.737 689.771C384.831 689.3 385.727 688.781 387.424 688.216C389.215 687.556 390.346 687.179 390.818 687.084C391.195 686.896 392.279 686.566 394.07 686.094C395.862 685.623 396.852 685.387 397.04 685.387C397.417 685.387 398.313 685.246 399.727 684.963C401.142 684.68 402.179 684.586 402.839 684.68C403.499 684.586 404.394 684.727 405.526 685.104C406.563 685.387 407.506 685.953 408.354 686.801L408.778 687.226C410.758 690.526 411.56 693.778 411.182 696.984L410.9 697.267ZM442.432 662.906C439.887 666.205 436.492 668.845 432.25 670.825C427.913 672.711 423.765 673.465 419.805 673.088C417.636 672.617 416.128 672.334 415.279 672.239C414.431 671.957 413.111 671.58 411.319 671.108C409.434 670.542 407.973 670.024 406.935 669.552C405.993 668.987 404.861 668.327 403.541 667.573C402.221 666.818 401.09 665.97 400.147 665.027C399.11 663.99 398.214 662.811 397.46 661.491C394.349 658.192 392.133 653.902 390.813 648.622C389.588 643.248 389.022 638.534 389.116 634.48C389.211 630.426 389.541 625.382 390.106 619.348C390.295 618.217 390.389 617.368 390.389 616.802C391.143 609.637 394.915 602.66 401.703 595.872C403.117 594.458 407.973 590.357 416.269 583.568C416.646 583.568 417.589 583.285 419.098 582.72C420.7 582.06 422.02 581.777 423.057 581.871C424 581.871 424.707 582.484 425.179 583.71L428.856 583.71C432.156 582.861 434.654 582.72 436.351 583.285C438.614 583.851 444.601 586.727 454.312 591.912C455.254 592.478 458.696 594.128 464.635 596.862C470.669 599.502 474.205 601.152 475.242 601.812C481.936 603.792 486.037 605.441 487.546 606.761L490.515 608.317C490.893 608.883 490.987 609.826 490.798 611.145C490.61 612.465 490.515 613.22 490.515 613.408C489.478 615.577 486.744 617.745 482.313 619.914C481.37 620.291 480.427 620.574 479.485 620.762C478.542 620.762 477.788 620.762 477.222 620.762C476.656 620.574 475.572 620.338 473.969 620.055C472.461 619.678 471.329 619.395 470.575 619.206L469.302 619.065C465.814 617.651 459.874 614.917 451.483 610.863C454.123 621.045 454.783 630.85 453.463 640.278C452.049 649.612 448.372 657.155 442.432 662.906ZM428.573 650.461C430.176 648.858 432.014 646.265 434.088 642.682C437.011 636.366 438.237 629.2 437.765 621.186C436.351 612.418 433.947 605.866 430.553 601.529C430.27 601.246 429.374 599.973 427.866 597.71C426.263 595.353 425.037 593.845 424.189 593.185C422.775 595.542 420.418 598.653 417.118 602.519C413.818 606.196 411.414 609.166 409.905 611.428C407.831 614.257 406.511 617.934 405.945 622.459C405.286 626.89 405.144 630.614 405.521 633.631C405.898 636.648 406.511 640.844 407.36 646.218C407.737 649.801 410.989 652.488 417.118 654.279C421.36 655.127 425.179 653.855 428.573 650.461ZM557.64 553.072C556.037 555.429 552.596 555.853 547.316 554.345C546.09 554.439 543.686 552.601 540.104 548.829C536.427 544.964 534.258 542.795 533.598 542.324C531.807 540.533 526.009 535.017 516.203 525.778C506.492 516.444 501.071 510.929 499.94 509.231C498.62 507.912 496.687 505.696 494.142 502.585C491.502 499.379 489.05 496.645 486.788 494.382C484.525 492.119 482.309 490.47 480.141 489.432C479.198 489.432 478.585 489.48 478.302 489.574C470.571 496.928 465.527 503.197 463.17 508.383L451.432 528.889C451.432 531.906 451.149 533.98 450.584 535.112C449.17 540.297 447.143 544.775 444.503 548.547C436.866 550.149 431.869 549.395 429.512 546.284C428.004 545.152 426.731 542.56 425.694 538.506C431.068 525.212 436.112 515.454 440.826 509.231C446.483 499.049 453.318 489.197 461.332 479.674C461.709 479.109 462.51 477.93 463.736 476.139C465.056 474.253 466.093 472.65 466.847 471.331C467.696 469.916 468.261 468.502 468.544 467.088C468.827 466.805 469.629 466.098 470.948 464.967C472.268 463.647 473.541 462.468 474.767 461.431C475.898 460.3 477.265 458.838 478.868 457.047C479.339 456.576 481.979 453.464 486.788 447.713C491.596 441.773 497.347 435.268 504.041 428.197C505.644 426.971 508.095 424.52 511.395 420.843C514.695 416.978 517.806 414.149 520.729 412.358C523.746 410.472 527.14 409.812 530.911 410.378C532.042 410.566 533.08 411.038 534.022 411.792C535.059 412.452 535.908 413.206 536.568 414.055C537.228 414.903 538.029 415.705 538.972 416.459C539.066 416.742 539.114 417.355 539.114 418.298C539.114 419.24 539.066 419.853 538.972 420.136C536.615 422.304 531.618 427.207 523.981 434.844C516.439 442.386 511.584 447.336 509.415 449.693C508.284 450.824 506.822 452.569 505.031 454.926C503.334 457.188 501.92 458.885 500.788 460.017L498.101 462.704C497.63 463.175 497.206 463.694 496.829 464.259L493.01 469.209C492.633 469.775 492.209 470.293 491.737 470.765C492.869 474.725 493.859 477.035 494.707 477.695C494.896 479.014 499.94 484.624 509.839 494.524C519.739 504.235 525.066 509.467 525.82 510.221C526.951 511.164 531.43 515.077 539.255 521.959C546.986 528.748 553.02 533.273 557.357 535.536L557.781 535.96C558.441 536.997 559.148 540.156 559.903 545.435C559.903 546.001 559.903 546.85 559.903 547.981C559.903 549.112 559.855 549.725 559.761 549.819C559.761 550.008 559.573 550.574 559.195 551.516C558.913 552.365 558.394 552.884 557.64 553.072ZM595.872 482.878C589.65 479.107 584.983 473.969 581.871 467.464C578.76 460.77 576.262 452.803 574.376 443.563C572.585 429.893 574.14 418.249 579.043 408.632L580.881 405.945C582.673 403.4 584.228 401.561 585.548 400.43C591.017 395.339 597.192 392.369 604.075 391.52C610.957 390.672 617.132 392.699 622.601 397.601C627.692 402.504 630.426 409.009 630.803 417.118C631.18 425.226 629.248 431.778 625.005 436.775C623.968 439.132 622.459 441.301 620.479 443.281C615.671 448.089 609.307 451.719 601.388 454.17L595.024 456.291C596.249 459.968 597.522 462.467 598.842 463.787C605.159 468.029 612.466 469.679 620.762 468.736C629.059 467.605 635.706 464.164 640.703 458.413C644.285 455.584 647.915 450.634 651.592 443.563L654.562 438.331C656.259 434.371 659.417 429.704 664.037 424.33C666.017 421.784 668.186 421.407 670.543 423.199L675.351 428.007C675.634 434.701 673.701 440.405 669.553 445.119L667.007 449.644C661.539 459.45 656.919 466.049 653.148 469.443C646.077 477.457 637.403 482.643 627.126 485C617.227 488.111 606.809 487.404 595.872 482.878ZM591.912 443.563C594.929 442.055 596.674 441.065 597.145 440.593C598.276 440.216 599.361 439.792 600.398 439.321C601.435 438.849 602.472 438.189 603.509 437.341C604.64 436.398 605.442 435.691 605.913 435.219C606.384 434.748 607.28 433.852 608.6 432.532C610.014 431.118 610.816 430.317 611.004 430.128C612.701 427.677 613.786 424.519 614.257 420.653C614.728 416.599 614.21 413.441 612.701 411.178C610.627 407.407 606.102 407.312 599.125 410.895L595.731 412.592C593.845 414.478 592.478 417.165 591.629 420.653C590.875 424.047 590.498 426.687 590.498 428.573C590.404 430.364 590.404 433.475 590.498 437.906L591.488 442.008L591.912 443.563ZM772.381 360.958C769.459 364.258 767.102 366.049 765.31 366.332C763.896 366.615 762.388 366.803 760.785 366.898C759.276 367.086 757.579 367.18 755.694 367.18C753.997 367.18 752.582 367.18 751.451 367.18C750.32 367.18 748.623 367.086 746.36 366.898C744.191 366.803 742.683 366.709 741.834 366.615C741.174 366.52 739.525 366.379 736.885 366.19C734.339 365.908 732.831 365.719 732.359 365.625C728.777 365.248 713.88 363.456 687.67 360.251C685.407 364.022 685.973 372.319 689.367 385.141C689.461 385.424 690.121 386.744 691.347 389.101C692.478 391.363 693.28 393.013 693.751 394.05C694.883 395.747 695.543 399.613 695.731 405.647C694.694 409.512 692.573 412.765 689.367 415.405C688.99 415.405 688.566 415.452 688.094 415.546C687.717 415.546 686.727 415.499 685.124 415.405C683.616 415.216 682.673 415.122 682.296 415.122C682.013 415.028 681.165 414.839 679.75 414.557C678.431 414.179 677.723 413.755 677.629 413.284C677.535 412.812 677.016 412.105 676.074 411.162C673.434 405.317 672.208 398.717 672.397 391.363C670.982 377.127 670.417 367.039 670.7 361.099C669.568 359.591 668.342 358.365 667.023 357.422C665.891 356.857 664.288 356.385 662.214 356.008C660.234 355.537 658.066 355.16 655.709 354.877C653.352 354.405 651.796 354.075 651.042 353.887C650.476 353.887 648.308 353.887 644.537 353.887C640.765 353.887 637.277 353.887 634.071 353.887C630.96 353.792 628.886 353.792 627.849 353.887C625.68 353.227 623.983 352.567 622.758 351.907C620.778 351.058 619.364 349.267 618.515 346.533C617.572 343.704 617.666 341.347 618.798 339.462C619.175 338.142 620.024 336.822 621.343 335.502C623.606 333.239 626.623 331.919 630.394 331.542C633.883 331.259 637.654 331.354 641.708 331.825C645.762 332.108 650.193 332.674 655.002 333.522C659.716 334.276 663.44 334.795 666.174 335.078C668.248 333.569 669.474 331.778 669.851 329.704C670.605 327.064 671.124 324.377 671.407 321.643C671.595 318.814 671.595 316.552 671.407 314.854C671.312 313.063 671.077 310.659 670.7 307.642C670.228 304.531 669.945 302.362 669.851 301.137C669.851 300.382 669.71 298.072 669.427 294.207C669.238 290.247 669.144 287.513 669.144 286.004C669.144 284.496 669.191 282.28 669.285 279.358C669.474 276.341 669.804 273.842 670.275 271.862C670.841 269.788 671.548 267.95 672.397 266.347C677.016 261.35 680.646 258.946 683.286 259.134L691.206 267.054C691.771 269.505 691.394 273.559 690.074 279.216C688.754 284.873 688.236 288.88 688.519 291.237C685.879 300.854 685.266 315.797 686.68 336.068L689.367 338.755C689.556 338.943 690.734 339.462 692.903 340.31C695.071 340.97 696.58 341.347 697.428 341.442C701.294 341.913 709.072 342.714 720.763 343.846C732.453 344.977 741.41 346.014 747.633 346.957C748.387 346.957 750.461 347.051 753.855 347.24C757.249 347.24 759.936 347.381 761.916 347.664C764.085 347.947 766.112 348.466 767.997 349.22C769.694 350.54 771.203 352.048 772.523 353.745C772.617 354.405 772.664 355.584 772.664 357.281C772.759 359.072 772.664 360.298 772.381 360.958Z" fill="white"/>
<path d="M704.898 756.304C703.021 756.304 701.015 755.792 698.882 754.768C696.834 753.744 695.81 752.037 695.81 749.648C695.81 748.283 696.066 747.131 696.578 746.192C697.09 745.253 697.602 744.613 698.114 744.272C698.626 743.845 699.479 743.376 700.674 742.864C712.706 732.368 726.103 723.536 740.866 716.368C733.783 713.723 724.951 708.475 714.37 700.624C714.114 700.453 713.602 700.069 712.834 699.472C712.066 698.789 711.554 698.363 711.298 698.192C711.042 697.936 710.615 697.552 710.018 697.04C709.421 696.528 708.994 696.101 708.738 695.76C708.567 695.419 708.311 694.992 707.97 694.48C707.714 693.968 707.543 693.456 707.458 692.944C707.373 692.432 707.373 691.877 707.458 691.28C706.775 689.403 707.543 687.781 709.762 686.416C711.981 685.051 713.943 684.539 715.65 684.88C719.405 683.856 725.421 682.107 733.698 679.632C742.061 677.072 749.271 675.067 755.33 673.616C761.474 672.165 767.661 671.141 773.89 670.544H776.706C778.242 671.568 779.266 672.635 779.778 673.744C780.29 674.768 780.589 676.091 780.674 677.712C780.759 679.248 780.93 680.443 781.186 681.296C781.186 687.611 778.839 690.768 774.146 690.768C772.695 690.768 771.202 690 769.666 688.464C768.13 686.843 767.362 685.307 767.362 683.856V682.448L755.202 685.52C754.007 685.861 749.698 687.013 742.274 688.976C734.85 690.853 729.261 692.347 725.506 693.456L725.762 693.712C730.882 697.979 736.557 701.691 742.786 704.848C749.101 707.92 754.775 709.115 759.81 708.432C762.797 710.565 764.29 712.699 764.29 714.832C764.29 716.027 763.949 717.264 763.266 718.544C762.583 719.739 761.73 720.549 760.706 720.976C755.671 722.427 747.778 725.883 737.026 731.344C734.807 732.368 732.717 733.52 730.754 734.8C728.791 735.995 726.274 737.701 723.202 739.92C720.215 742.139 718.253 743.589 717.314 744.272L727.426 743.888C747.223 742.864 759.895 741.925 765.442 741.072C765.954 738.427 766.893 736.037 768.258 733.904C769.709 731.771 771.415 730.704 773.378 730.704C775.341 730.704 776.834 731.387 777.858 732.752C778.967 734.117 779.522 735.696 779.522 737.488C779.437 738 779.266 738.853 779.01 740.048C778.839 741.243 778.754 742.053 778.754 742.48C778.839 742.907 779.01 743.76 779.266 745.04C779.266 747.003 778.626 748.709 777.346 750.16C776.151 751.525 774.487 752.208 772.354 752.208C771.245 752.208 770.093 751.909 768.898 751.312C760.194 752.763 752.045 753.616 744.45 753.872C741.037 753.957 734.807 754.427 725.762 755.28C716.717 756.133 709.762 756.475 704.898 756.304Z" fill="white"/>
<path d="M206.194 334.943C205.514 334.952 204.879 334.848 204.288 334.633C203.711 334.483 203.232 334.312 202.85 334.121C202.534 333.915 202.15 333.554 201.7 333.036C201.3 332.44 201.001 331.992 200.801 331.694C200.666 331.382 200.379 330.829 199.937 330.037C199.483 329.18 199.148 328.569 198.935 328.205C196.753 324.035 194.775 317.776 193.001 309.429C192.327 308.822 191.576 308.335 190.748 307.965C184.574 307.778 181.415 306.064 181.272 302.823C180.799 301.561 180.745 300.345 181.11 299.177C181.475 298.009 182.251 297.333 183.439 297.149C184.077 296.945 185.025 296.914 186.282 297.055C187.525 297.132 188.51 296.957 189.237 296.53L186.796 286.007C186.125 283.492 186.069 279.38 186.628 273.673C186.619 270.744 187.849 267.074 190.32 262.664C191.333 261.018 193.135 259.237 195.727 257.323C196.194 256.952 197.098 256.555 198.439 256.134C199.781 255.712 200.692 255.348 201.172 255.041L209.157 253.651C211.932 253.879 213.727 254.145 214.541 254.449C215.183 254.585 215.709 254.814 216.118 255.136C216.579 255.379 217.153 255.836 217.841 256.508C218.529 257.179 218.959 257.599 219.131 257.767C219.2 258.093 219.437 258.724 219.84 259.661C220.295 260.519 220.52 261.255 220.514 261.869C220.509 262.484 220.128 262.94 219.374 263.236C218.631 264.553 217.138 264.904 214.895 264.29C214.411 264.257 213.61 264.018 212.493 263.574C211.428 263.051 210.763 262.647 210.498 262.362C208.723 262.672 206.625 263.22 204.202 264.007C204.137 264.021 203.741 264.242 203.014 264.669C202.273 265.031 201.765 265.207 201.49 265.197C198.99 264.979 197.262 266.948 196.305 271.104C195.335 275.196 194.94 279.914 195.123 285.26C195.547 290.145 196.57 294.153 198.19 297.285L199.607 297.699C202.158 297.838 205.525 297.804 209.706 297.597C213.953 297.376 217.175 297.304 219.373 297.383C223.693 297.827 226.867 298.652 228.895 299.857C229.364 300.779 229.37 301.767 228.912 302.818C228.519 303.856 227.775 304.525 226.68 304.826C225.692 305.309 224.514 305.695 223.144 305.986C221.384 306.361 219.318 306.425 216.949 306.179C214.579 305.933 213.029 305.853 212.298 305.941C209.918 305.969 207.979 306.143 206.479 306.462C204.849 306.808 203.3 307.376 201.831 308.165L201.998 308.948L202.357 311.12L202.524 311.903C202.831 314.632 203.885 317.986 205.685 321.966C207.55 325.931 208.709 328.82 209.163 330.632C209.26 331.088 209.129 331.593 208.769 332.147C208.396 332.635 207.899 333.184 207.279 333.793C206.724 334.388 206.362 334.771 206.194 334.943ZM274.102 339.831C272.691 339.927 271.034 339.188 269.132 337.616C267.231 336.044 265.742 335.133 264.667 334.885C260.421 331.903 254.967 326.928 248.306 319.96C241.697 312.914 238.214 307.588 237.856 303.984C236.086 299.18 234.852 292.252 234.154 283.199C235.708 269.988 238.643 260.231 242.961 253.929C245.967 249.473 248.414 246.397 250.303 244.701C252.191 243.004 254.342 241.9 256.755 241.387C256.913 241.49 257.406 241.725 258.234 242.095C259.049 242.399 259.655 242.849 260.055 243.446C260.506 243.963 260.698 244.706 260.631 245.675C260.621 245.949 260.6 246.329 260.566 246.813C260.533 247.297 260.504 247.644 260.481 247.853C260.443 247.998 260.361 248.254 260.235 248.621C260.16 248.91 260.052 249.205 259.912 249.508C259.758 249.745 259.553 250.061 259.296 250.457C257.8 251.115 256.338 252.414 254.91 254.354C253.482 256.293 252.07 258.467 250.674 260.877C249.329 263.207 248.335 264.782 247.691 265.6C244.553 271.038 243.106 275.776 243.351 279.813L243.766 286.575C244.198 293.094 247.814 301.288 254.614 311.157L256.636 312.976C257.654 313.918 258.891 315.086 260.346 316.481C261.787 317.811 262.773 318.76 263.303 319.329C263.884 319.818 264.598 320.451 265.444 321.225C266.369 322.051 267.069 322.617 267.543 322.926C268.097 323.285 268.722 323.663 269.42 324.06C270.132 324.522 270.862 324.912 271.611 325.23C274.029 327.306 275.493 328.903 276.004 330.022C276.593 331.191 276.885 333.208 276.881 336.072C276.996 336.933 276.692 337.747 275.969 338.515C275.311 339.268 274.688 339.707 274.102 339.831ZM288.781 322.603C288.091 322.886 286.951 322.651 285.36 321.899C283.068 319.455 281.957 317.272 282.025 315.349L281.942 314.958C282.26 314.209 283.431 312.665 285.456 310.326C286.001 310.006 287.78 308.435 290.793 305.613C291.152 305.06 292.214 303.642 293.978 301.358C295.793 298.996 296.881 297.061 297.242 295.553C296.712 294.984 296.124 294.461 295.477 293.985C294.831 293.509 294.04 292.996 293.105 292.445C292.235 291.88 291.556 291.411 291.068 291.038C287.324 288.494 284.987 286.639 284.058 285.474L283.123 281.072C283.156 280.588 283.789 279.397 285.021 277.499C285.315 276.959 285.723 276.634 286.245 276.523C286.506 276.468 286.774 276.445 287.048 276.455C287.323 276.464 287.637 276.5 287.991 276.561C288.345 276.622 288.594 276.671 288.738 276.709L291.703 278.635C292.587 279.265 294.298 280.741 296.836 283.064C299.44 285.373 301.617 286.955 303.366 287.81C303.706 287.806 303.974 287.783 304.169 287.742L305.224 287.415C305.677 286.978 307.011 285.4 309.227 282.68C311.495 279.88 313.211 278.016 314.377 277.087C314.648 276.756 315.13 276.143 315.826 275.245C316.521 274.348 317.011 273.766 317.295 273.501C317.566 273.171 318.044 272.695 318.729 272.072C319.415 271.449 320.03 270.978 320.576 270.657C321.121 270.337 321.862 269.975 322.798 269.571C323.735 269.168 324.783 268.809 325.943 268.494C326.046 268.336 326.209 268.301 326.432 268.39C326.642 268.414 326.786 268.451 326.865 268.503C326.996 268.475 327.147 268.545 327.319 268.713C327.556 268.867 327.721 269.002 327.814 269.119C327.893 269.17 328.025 269.312 328.211 269.545C328.383 269.713 328.476 269.83 328.49 269.895C328.532 270.091 328.622 270.515 328.76 271.167C328.95 271.74 329.022 272.236 328.974 272.655C328.979 272.995 328.852 273.362 328.596 273.758C327.14 275.567 325.711 276.859 324.308 277.634C319.168 282.952 314.964 288.344 311.695 293.81C311.648 294.229 311.738 294.652 311.966 295.081L320.291 299.139C320.449 299.242 321.38 299.453 323.084 299.772C323.293 299.796 323.771 299.797 324.516 299.774C325.312 299.673 325.959 299.672 326.457 299.771C326.941 299.804 327.342 299.923 327.658 300.129C329.076 301.668 329.777 302.882 329.761 303.771C330.122 305.467 329.328 306.862 327.38 307.958C326.518 308.073 325.735 308.239 325.032 308.457C324.329 308.674 323.546 308.841 322.684 308.956C321.874 308.992 321.108 308.916 320.387 308.728C318.535 308.032 315.913 306.919 312.521 305.391C309.115 303.798 306.847 302.746 305.717 302.237C305.572 302.199 305.337 302.215 305.011 302.284C304.685 302.354 304.457 302.402 304.326 302.43C303.25 303.136 302.299 303.952 301.473 304.877C300.712 305.788 299.8 307.107 298.735 308.832C297.722 310.479 297.08 311.467 296.81 311.798C296.502 312.272 295.727 313.595 294.484 315.768C293.256 318.005 292.269 319.612 291.522 320.589C290.505 321.896 289.591 322.567 288.781 322.603ZM353.256 323.007C352.799 323.104 352.29 323.11 351.726 323.025C351.163 322.94 350.505 322.569 349.752 321.911C349.077 321.305 348.609 320.382 348.345 319.143L348.179 318.361C348.165 318.295 348.196 318.119 348.271 317.83C348.411 317.528 348.57 317.153 348.747 316.706C349.004 316.311 349.151 316.041 349.189 315.897C349.315 315.529 349.952 314.678 351.1 313.344C352.261 312.075 353.57 310.536 355.026 308.727C356.56 306.969 357.692 305.4 358.421 304.018C359.613 300.97 360.104 296.708 359.895 291.232C359.685 285.756 358.855 280.889 357.404 276.631C354.068 266.707 350.754 259.131 347.461 253.901C346.69 252.838 344.392 250.362 340.566 246.473C336.792 242.504 334.417 240.146 333.44 239.4L332.847 239.015L331.012 238.076C330.933 238.024 330.814 237.947 330.656 237.845L330.439 237.788C329.305 236.939 328.452 236.132 327.88 235.367C327.309 234.603 326.94 233.829 326.773 233.047C326.593 232.199 326.418 231.214 326.248 230.092C326.164 229.7 326.433 229.2 327.053 228.591C327.725 227.903 328.385 227.32 329.033 226.842C329.746 226.349 330.135 226.096 330.2 226.082C332.965 226.585 335.566 227.6 338.004 229.126C340.427 230.588 342.812 232.671 345.159 235.375C347.506 238.08 349.411 240.469 350.875 242.543C352.324 244.553 354.221 247.387 356.567 251.046C360.17 257.096 362.922 262.508 364.823 267.284C366.711 271.995 367.945 277.321 368.526 283.263C369.034 286.291 369.108 290.807 368.748 296.813C368.375 302.754 367.512 307.027 366.157 309.632C362.056 317.592 357.755 322.05 353.256 323.007Z" fill="white"/>
</g>
</g>
<defs>
<clipPath id="clip0_16_10274">
<rect width="1000" height="1000" fill="white"/>
</clipPath>
<clipPath id="clip1_16_10274">
<rect width="1059" height="1000" fill="white" transform="translate(-29)"/>
</clipPath>
</defs>
</svg>
